<svg xmlns="http://www.w3.org/2000/svg" width="48" height="45" fill="none" viewBox="0 0 48 45">
    <g fill-rule="evenodd" clip-path="url(#clip0)" clip-rule="evenodd">
        <path fill="#FDB812" d="M16.474 28.06c-.771-.243-1.34-1.011-1.34-1.86V14.473c-2.556.647-4.99 1.577-7.303 2.75v8.085c0 1.659 1.055 3.114 2.516 3.68l.08.04c3.45 1.416 7.183 2.305 11.037 2.548v-2.588c-.811-.08-3.083-.283-4.828-.89l-.162-.04z"/>
        <path fill="#FDB812" d="M31.608 25.472c0-.526-.365-.728-.974-.647-1.177.08-3.084.202-4.22-.162l-.162-.04c-.77-.243-1.339-1.011-1.339-1.86v-9.421h-.406c-2.353 0-4.625.243-6.857.647v10.634c0 1.172.812 2.142 1.867 2.466l.121.04h.081c3.368.768 8.846.445 11.889-.444v-1.213z"/>
        <path fill="#FDB812" d="M35.503 17.547c1.988.607 4.017 1.698 4.788 2.103v-2.467l-.04-.04c-3.896-1.94-8.197-3.235-12.782-3.68h-.081v6.955c0 .849.122 2.264 2.07 2.466 1.135.121 2.11.202 3.083.404.974.203 1.339.728 1.339 1.86v.93c0 .89-.365 1.658-1.664 1.981-1.501.364-4.017.85-5.843.89v2.587c3.977-.242 7.79-1.172 11.32-2.587 1.502-.566 2.557-1.82 2.557-3.518v-1.617c0-1.051-.284-2.183-2.07-3.154-.446-.242-1.703-.768-2.88-1.253-.609-.243-1.46-.364-1.46-1.294.08-.525-.041-1.091 1.663-.566zM42.644 18.396c1.866 1.173 3.611 2.466 5.275 3.882.162.161.162.404 0 .566-1.623 1.415-3.409 2.749-5.275 3.921-.284.162-.609-.08-.568-.404l.325-1.334c.365-1.617.365-3.275 0-4.892l-.325-1.335c-.081-.323.284-.606.568-.404zM5.396 18.356c-1.866 1.172-3.61 2.466-5.274 3.922-.163.12-.163.404 0 .566 1.663 1.415 3.408 2.749 5.274 3.921.284.162.61-.08.569-.404l-.325-1.334c-.365-1.617-.365-3.275 0-4.892l.325-1.335c.04-.363-.325-.606-.569-.444z"/>
        <path fill="#00A0E4" d="M25.48 1.739C26.577.606 28.119-.081 29.905 0 32.5.121 34.773 2.022 35.3 4.569c.73 3.436-1.745 6.63-5.112 6.954-9.292-.566-13.35.809-14.404 1.253l-.082-.121 9.779-10.916zM24.71 43.261c1.096 1.133 2.637 1.82 4.423 1.739 2.597-.121 4.869-2.022 5.396-4.569.73-3.436-1.744-6.63-5.112-6.954-9.292.566-13.35-.808-14.404-1.253l-.081.121 9.778 10.916z"/>
    </g>
    <defs>
        <clipPath id="clip0">
            <path fill="#fff" d="M0 0H48V45H0z"/>
        </clipPath>
    </defs>
</svg>
